<?xml version="1.0" standalone="no"?>
<!DOCTYPE svg PUBLIC "-//W3C//DTD SVG 20010904//EN"
 "http://www.w3.org/TR/2001/REC-SVG-20010904/DTD/svg10.dtd">
<svg version="1.0" xmlns="http://www.w3.org/2000/svg"
 width="880.000000pt" height="660.000000pt" viewBox="0 0 880.000000 660.000000"
 preserveAspectRatio="xMidYMid meet">
<metadata>
Created by potrace 1.16, written by Peter Selinger 2001-2019
</metadata>
<g transform="translate(0.000000,660.000000) scale(0.100000,-0.100000)"
fill="#000000" stroke="none">
<path d="M7755 6174 c-349 -37 -733 -123 -1169 -264 -150 -49 -186 -64 -186
-79 0 -10 3 -20 6 -23 3 -3 51 10 107 29 409 139 829 240 1159 279 222 26 592
23 637 -5 11 -7 11 -16 2 -42 l-11 -34 -237 0 c-138 0 -278 -6 -333 -13 -270
-37 -546 -96 -825 -177 -192 -55 -456 -143 -469 -156 -14 -13 35 -180 95 -325
87 -212 227 -426 389 -597 99 -105 231 -217 255 -217 17 0 483 461 583 577
302 349 507 671 606 950 l25 71 -62 12 c-60 12 -490 22 -572 14z"/>
<path d="M3315 4984 c-85 -92 -520 -607 -520 -616 0 -7 27 -20 60 -31 33 -11
100 -39 148 -64 49 -25 97 -43 106 -40 10 2 119 64 242 137 181 107 658 376
934 526 44 24 48 28 29 34 -62 23 -356 66 -524 76 l-115 6 -80 -83 c-44 -46
-120 -126 -170 -179 -113 -119 -153 -158 -185 -179 -14 -8 -53 -37 -86 -63
-34 -27 -65 -48 -69 -48 -3 0 -22 -12 -41 -26 -19 -15 -34 -24 -34 -20 0 7 74
93 305 356 99 113 186 213 194 223 13 16 8 17 -78 17 -86 0 -93 -2 -116 -26z"/>
<path d="M6062 4928 c2 -6 14 -22 27 -33 l25 -22 -39 -34 c-139 -123 -415
-315 -625 -436 -115 -66 -225 -123 -238 -123 -4 0 -22 20 -40 45 -33 48 -62
63 -41 23 6 -13 77 -137 157 -275 l146 -253 35 21 c73 43 267 187 370 275 171
146 275 270 340 404 33 69 36 82 36 165 0 99 -12 133 -69 193 -36 39 -88 70
-84 50z"/>
<path d="M2635 4903 c-372 -89 -743 -227 -1105 -410 -195 -99 -245 -130 -143
-88 176 71 366 105 589 105 130 0 207 -7 405 -36 l46 -6 113 163 c62 90 133
192 158 227 50 71 49 72 -63 45z"/>
<path d="M4011 3623 c-476 -282 -868 -513 -873 -513 -4 0 -19 18 -33 40 l-25
40 -53 -29 c-28 -16 -97 -53 -152 -83 -55 -30 -140 -76 -190 -103 -205 -108
-240 -128 -247 -138 -3 -6 7 -36 23 -68 l29 -57 -70 -52 c-68 -51 -120 -103
-120 -121 0 -20 69 -7 145 27 44 19 85 37 90 40 6 2 55 -63 110 -146 54 -82
104 -150 111 -150 6 0 28 11 48 25 20 14 41 25 46 25 6 0 10 4 10 9 0 4 21 22
48 39 26 17 99 67 162 111 63 44 152 105 198 136 45 31 82 63 82 71 0 7 -31
68 -70 135 -38 68 -70 125 -70 128 0 8 -54 -25 910 548 448 267 817 487 820
489 5 6 -41 92 -55 103 -6 4 -396 -222 -874 -506z"/>
<path d="M1990 4000 c-12 -12 -20 -33 -20 -52 0 -33 15 -106 22 -114 3 -2 96
26 209 63 233 77 234 68 -11 103 -177 25 -175 25 -200 0z"/>
<path d="M2610 3754 c-47 -19 -182 -71 -300 -115 -118 -45 -219 -85 -224 -90
-18 -16 89 -264 119 -275 7 -3 29 1 47 9 18 9 107 48 198 88 332 145 401 176
406 182 14 14 -125 237 -146 236 -8 -1 -53 -16 -100 -35z"/>
<path d="M1191 3589 c-166 -38 -322 -131 -421 -250 -28 -33 -50 -62 -50 -65 0
-3 26 9 58 27 207 117 411 209 464 209 18 0 28 10 43 43 11 23 26 41 33 40 6
-2 12 2 12 7 0 14 -43 11 -139 -11z"/>
<path d="M5275 3112 c-224 -146 -712 -454 -892 -561 -195 -117 -177 -92 -188
-261 -22 -362 -150 -780 -325 -1065 -85 -140 -225 -298 -350 -398 -56 -45 -15
-21 143 86 732 491 1302 1153 1606 1864 62 145 144 387 139 408 -2 7 -55 -22
-133 -73z"/>
<path d="M1515 2630 c-22 -11 -71 -26 -110 -35 -105 -25 -103 -23 -70 -45 48
-31 148 -68 214 -79 65 -11 131 -5 131 12 0 5 -18 29 -40 53 -37 40 -54 74
-30 59 6 -3 7 1 4 9 -3 9 -10 16 -16 16 -5 0 -6 5 -2 12 4 6 3 8 -4 4 -6 -3
-13 -2 -17 4 -8 13 -12 12 -60 -10z"/>
<path d="M3569 2172 c-36 -31 -130 -113 -210 -180 -223 -192 -221 -189 -209
-212 31 -58 218 -214 270 -225 42 -9 54 3 89 93 16 42 66 169 110 282 45 113
81 209 81 215 0 14 -49 85 -58 84 -4 0 -37 -26 -73 -57z"/>
<path d="M2133 1741 c-76 -91 -120 -182 -109 -227 6 -24 11 -21 104 67 108
102 122 123 91 140 -12 6 -18 17 -15 25 4 10 2 12 -6 8 -7 -5 -9 -2 -6 7 12
30 -28 17 -59 -20z"/>
<path d="M2381 1184 c-51 -54 -106 -115 -123 -137 -31 -38 -31 -39 -7 -32 67
21 186 103 247 169 35 38 40 56 18 56 -8 0 -18 9 -21 20 -3 11 -10 20 -15 20
-4 0 -49 -43 -99 -96z"/>
<path d="M2813 1117 c1 -8 -11 -11 -38 -10 -22 1 -34 0 -27 -3 27 -12 9 -24
-36 -24 -48 0 -50 -1 -139 -92 -148 -153 -293 -318 -278 -318 13 0 125 70 230
143 93 65 315 273 315 295 0 5 -7 12 -15 16 -8 3 -14 0 -12 -7z"/>
</g>
</svg>
