<?xml version="1.0" encoding="iso-8859-1"?>
<!-- Generator: Adobe Illustrator 19.0.0, SVG Export Plug-In . SVG Version: 6.00 Build 0)  -->
<svg version="1.1" id="Capa_1" xmlns="http://www.w3.org/2000/svg" xmlns:xlink="http://www.w3.org/1999/xlink" x="0px" y="0px"
	 viewBox="0 0 512 512" style="enable-background:new 0 0 512 512;" xml:space="preserve">
<path style="fill:#454545;" d="M93.867,123.02H128v82.492H93.867V123.02z"/>
<path style="fill:#B3B3B3;" d="M418.133,409.595h25.6l59.733-102.4V187.728H59.733l-51.2,59.733v162.133h25.6H418.133z"/>
<g>
	<path style="fill:#454545;" d="M172.092,405.396l7.108-6.417c-4.105-9.916-4.113-9.941-8.226-19.849l-9.557,0.486l-11.947-11.947
		l0.486-9.557l-19.874-8.252l-6.417,7.108h-16.93l-6.417-7.108l-19.849,8.226l0.486,9.557l-11.947,11.947l-9.557-0.486
		c-4.113,9.907-4.122,9.933-8.226,19.849l7.108,6.417v16.93l-7.134,6.443c4.105,9.907,4.113,9.941,8.226,19.849l9.557-0.486
		l11.947,11.947l-0.486,9.557l19.874,8.252l6.417-7.108h16.93l6.417,7.108l19.849-8.226l-0.486-9.557l11.947-11.947l9.557,0.486
		c4.113-9.907,4.122-9.941,8.226-19.849l-7.108-6.417L172.092,405.396z M115.2,438.361c-13.534,0-24.499-10.965-24.499-24.499
		s10.965-24.499,24.499-24.499s24.499,10.965,24.499,24.499l0,0C139.691,427.387,128.725,438.352,115.2,438.361z"/>
	<path style="fill:#454545;" d="M393.651,405.396l7.108-6.417l-8.226-19.849l-9.557,0.486l-11.947-11.947l0.486-9.557l-19.883-8.252
		l-6.409,7.108h-16.93l-6.417-7.108l-19.857,8.226l0.495,9.557l-11.947,11.947l-9.557-0.486c-4.113,9.907-4.122,9.933-8.226,19.849
		l7.1,6.417v16.93l-7.1,6.417c4.105,9.907,4.113,9.941,8.226,19.849l9.557-0.486l11.947,11.947l-0.495,9.557l19.857,8.277
		l6.417-7.108h16.93l6.409,7.108l19.857-8.226l-0.486-9.557l11.947-11.947l9.583,0.461c4.105-9.907,4.113-9.941,8.226-19.849
		l-7.108-6.417V405.396z M336.759,438.361c-13.534,0.009-24.499-10.957-24.508-24.491c-0.009-13.534,10.957-24.499,24.491-24.508
		c13.534-0.009,24.499,10.957,24.508,24.491v0.009C361.25,427.387,350.285,438.352,336.759,438.361z"/>
	<path style="fill:#454545;" d="M34.133,341.328H51.2v17.067H34.133V341.328z"/>
	<path style="fill:#454545;" d="M341.333,221.861h128v76.1L433.4,359.564l-57.933-43.836h-34.133V221.861z"/>
	<path style="fill:#454545;" d="M51.2,324.261H34.133v-64.179c0-2.031,0.734-4.002,2.057-5.547l32.768-38.229
		c1.621-1.894,3.985-2.978,6.477-2.978h230.699v17.067H79.36L51.2,263.248V324.261z"/>
	<path style="fill:#454545;" d="M198.767,372.961l-48.7-48.7H76.8v-17.067h76.8c2.261,0,4.437,0.896,6.033,2.5l51.2,51.2
		L198.767,372.961z"/>
</g>
<path style="fill:#D3D3D3;" d="M179.2,187.728v-51.2l34.133-25.6h102.4l34.133,25.6v51.2H179.2z"/>
<path style="fill:#454545;" d="M426.667,25.595h17.067v145.067h-17.067V25.595z"/>
<path style="fill:#D3D3D3;" d="M418.133,68.261h34.133v17.067h-34.133V68.261z"/>
<g>
	<path style="fill:#777777;" d="M409.6,187.728v-34.133h51.2v34.133"/>
	<path style="fill:#777777;" d="M76.8,93.861h68.267v42.667H76.8V93.861z"/>
</g>
<path d="M115.2,446.894c-18.219,0-33.033-14.814-33.033-33.033s14.814-33.033,33.033-33.033s33.033,14.814,33.033,33.033
	S133.419,446.894,115.2,446.894z M115.2,397.887c-8.806,0-15.966,7.168-15.966,15.966s7.159,15.966,15.966,15.966
	s15.966-7.168,15.966-15.966S124.006,397.887,115.2,397.887z"/>
<path d="M100.309,486.395c-1.092,0-2.202-0.205-3.26-0.649l-19.849-8.226c-3.337-1.382-5.436-4.71-5.257-8.32l0.29-5.777
	l-6.579-6.579l-5.769,0.299c-3.49,0.205-6.938-1.92-8.32-5.248l-8.252-19.874c-1.382-3.345-0.521-7.194,2.167-9.609l4.292-3.874
	v-9.353l-4.292-3.874c-2.679-2.415-3.55-6.263-2.167-9.6l8.226-19.849c1.382-3.345,4.881-5.487,8.32-5.257l5.769,0.299l6.579-6.579
	l-0.29-5.777c-0.179-3.601,1.92-6.938,5.248-8.32l19.874-8.252c3.345-1.391,7.194-0.512,9.6,2.167l3.874,4.292h9.353l3.874-4.292
	c2.415-2.671,6.255-3.558,9.6-2.167l19.849,8.226c3.337,1.382,5.436,4.71,5.257,8.32l-0.29,5.777l6.579,6.579l5.769-0.299
	c3.439-0.222,6.938,1.92,8.32,5.248l8.252,19.874c1.382,3.345,0.521,7.194-2.167,9.609l-4.292,3.874v9.353l4.292,3.874
	c2.679,2.415,3.55,6.263,2.167,9.6l-8.226,19.849c-1.382,3.345-4.787,5.513-8.32,5.257l-5.769-0.299l-6.579,6.579l0.29,5.777
	c0.179,3.601-1.92,6.938-5.248,8.32l-19.874,8.252c-3.337,1.399-7.185,0.521-9.6-2.167l-3.874-4.292h-9.353l-3.874,4.292
	C105.003,485.405,102.682,486.395,100.309,486.395z M89.293,464.055l8.721,3.61l2.381-2.637c1.613-1.792,3.917-2.816,6.332-2.816
	h16.93c2.415,0,4.719,1.024,6.332,2.816l2.381,2.637l8.747-3.635l-0.179-3.55c-0.128-2.406,0.777-4.762,2.492-6.468l11.947-11.947
	c1.707-1.715,4.053-2.611,6.468-2.492l3.541,0.179l3.618-8.713l-2.637-2.381c-1.792-1.613-2.816-3.917-2.816-6.332v-16.93
	c0-2.415,1.024-4.719,2.816-6.332l2.637-2.372l-3.635-8.747l-3.55,0.179c-2.398,0.102-4.77-0.777-6.468-2.492l-11.947-11.947
	c-1.707-1.707-2.611-4.062-2.492-6.468l0.179-3.55l-8.721-3.61l-2.381,2.637c-1.613,1.792-3.917,2.816-6.332,2.816h-16.93
	c-2.415,0-4.719-1.024-6.332-2.816l-2.381-2.637l-8.747,3.635l0.179,3.55c0.128,2.406-0.777,4.762-2.492,6.468l-11.947,11.947
	c-1.707,1.707-4.062,2.637-6.468,2.492l-3.541-0.179l-3.618,8.713l2.637,2.381c1.792,1.613,2.816,3.917,2.816,6.332v16.93
	c0,2.415-1.024,4.719-2.816,6.332l-2.637,2.372l3.635,8.747l3.55-0.179c2.389-0.145,4.77,0.785,6.468,2.492l11.947,11.947
	c1.707,1.707,2.611,4.062,2.492,6.468L89.293,464.055z"/>
<path d="M336.759,446.894c-18.219,0-33.033-14.814-33.033-33.033s14.814-33.033,33.033-33.033s33.033,14.814,33.033,33.033
	S354.978,446.894,336.759,446.894z M336.759,397.887c-8.798,0-15.966,7.168-15.966,15.966s7.168,15.966,15.966,15.966
	s15.966-7.168,15.966-15.966S345.557,397.887,336.759,397.887z"/>
<path d="M351.633,486.395c-2.364,0-4.685-0.981-6.34-2.816l-3.866-4.292h-9.344l-3.874,4.292c-2.415,2.679-6.263,3.55-9.6,2.167
	l-19.857-8.226c-3.345-1.382-5.444-4.719-5.257-8.329l0.307-5.769l-6.579-6.579l-5.769,0.299c-3.763,0.222-6.946-1.929-8.329-5.257
	l-8.226-19.849c-1.382-3.337-0.521-7.177,2.159-9.6l4.292-3.874v-9.378l-4.292-3.874c-2.671-2.423-3.541-6.263-2.159-9.6
	l8.226-19.849c1.382-3.337,4.582-5.436,8.329-5.257l5.769,0.299l6.579-6.579l-0.307-5.769c-0.179-3.601,1.92-6.938,5.248-8.329
	l19.857-8.252c3.337-1.357,7.202-0.521,9.609,2.167l3.874,4.292h9.344l3.866-4.292c2.432-2.679,6.272-3.558,9.609-2.167
	l19.857,8.226c3.337,1.382,5.444,4.719,5.257,8.329l-0.299,5.769l6.588,6.588l5.811-0.282c3.831-0.179,6.929,1.937,8.303,5.257
	l8.226,19.849c1.382,3.337,0.521,7.185-2.167,9.6l-4.292,3.874v9.353l4.292,3.874c2.679,2.415,3.55,6.263,2.167,9.6l-8.226,19.849
	c-1.374,3.337-4.523,5.521-8.329,5.257l-5.769-0.299l-6.579,6.579l0.29,5.777c0.179,3.61-1.929,6.938-5.257,8.32l-19.883,8.252
	C353.843,486.181,352.734,486.395,351.633,486.395z M310.852,464.055l8.721,3.61l2.381-2.637c1.613-1.792,3.917-2.816,6.332-2.816
	h16.93c2.415,0,4.719,1.024,6.34,2.816l2.364,2.637l8.755-3.635l-0.179-3.55c-0.119-2.406,0.785-4.762,2.492-6.468l11.938-11.947
	c1.698-1.698,3.942-2.603,6.477-2.492l3.541,0.179l3.61-8.713l-2.637-2.381c-1.792-1.613-2.816-3.917-2.816-6.332v-16.93
	c0-2.415,1.024-4.719,2.816-6.332l2.637-2.381l-3.618-8.73l-3.584,0.179c-2.415,0.179-4.753-0.785-6.451-2.492l-11.947-11.947
	c-1.707-1.707-2.62-4.062-2.492-6.477l0.179-3.541l-8.721-3.61l-2.364,2.637c-1.621,1.792-3.925,2.816-6.34,2.816h-16.93
	c-2.415,0-4.719-1.024-6.332-2.816l-2.372-2.637l-8.73,3.627l0.188,3.55c0.128,2.406-0.785,4.77-2.492,6.477l-11.947,11.947
	c-1.698,1.707-3.883,2.645-6.477,2.492l-3.541-0.179l-3.61,8.721l2.637,2.372c1.783,1.613,2.807,3.917,2.807,6.332v16.956
	c0,2.415-1.024,4.719-2.807,6.332l-2.637,2.372l3.61,8.721l3.541-0.179c2.594-0.137,4.779,0.785,6.477,2.492l11.947,11.947
	c1.707,1.707,2.62,4.07,2.492,6.477L310.852,464.055z"/>
<rect x="201.242" y="401.744" width="58.317" height="17.067"/>
<path d="M443.733,418.128h-25.6v-17.067h20.702l56.098-96.179V196.261H63.659l-46.592,54.357v150.443h17.067v17.067h-25.6
	c-4.71,0-8.533-3.814-8.533-8.533V247.461c0-2.039,0.725-4.011,2.057-5.555l51.2-59.733c1.621-1.894,3.985-2.978,6.477-2.978
	h443.733c4.719,0,8.533,3.823,8.533,8.533v119.467c0,1.51-0.401,2.995-1.161,4.301l-59.733,102.4
	C449.579,416.515,446.763,418.128,443.733,418.128z"/>
<rect x="34.133" y="341.328" width="17.067" height="17.067"/>
<path d="M433.4,368.089c-1.843,0-3.661-0.597-5.154-1.724l-55.646-42.103h-31.266c-4.719,0-8.533-3.814-8.533-8.533v-93.867
	c0-4.71,3.814-8.533,8.533-8.533h128c4.719,0,8.533,3.823,8.533,8.533v76.1c0,1.51-0.401,2.995-1.161,4.301l-35.934,61.602
	c-1.237,2.108-3.311,3.593-5.7,4.07C434.517,368.029,433.954,368.089,433.4,368.089z M349.867,307.195h25.6
	c1.86,0,3.669,0.606,5.154,1.724l50.261,38.033l29.918-51.302v-65.254H349.867V307.195z"/>
<path d="M51.2,324.261H34.133v-64.179c0-2.031,0.725-4.011,2.057-5.555l32.768-38.221c1.621-1.894,3.985-2.978,6.477-2.978h230.699
	v17.067H79.36L51.2,263.231V324.261z"/>
<path d="M198.767,372.961l-48.7-48.7H76.8v-17.067h76.8c2.261,0,4.437,0.896,6.033,2.5l51.2,51.2L198.767,372.961z"/>
<path d="M349.867,196.261H179.2c-4.71,0-8.533-3.823-8.533-8.533v-51.2c0-2.688,1.263-5.214,3.413-6.827l34.133-25.6
	c1.476-1.109,3.277-1.707,5.12-1.707h102.4c1.852,0,3.644,0.597,5.12,1.707l34.133,25.6c2.15,1.604,3.413,4.139,3.413,6.827v51.2
	C358.4,192.439,354.586,196.261,349.867,196.261z M187.733,179.195h153.6v-38.4l-28.442-21.333h-96.717l-28.442,21.333V179.195z"/>
<rect x="426.667" y="25.595" width="17.067" height="128"/>
<rect x="418.133" y="68.261" width="34.133" height="17.067"/>
<path d="M469.333,187.728h-17.067v-25.6h-34.133v25.6h-17.067v-34.133c0-4.71,3.814-8.533,8.533-8.533h51.2
	c4.719,0,8.533,3.823,8.533,8.533V187.728z"/>
<rect x="85.333" y="136.528" width="17.067" height="51.2"/>
<path d="M145.067,145.061H76.8c-4.71,0-8.533-3.823-8.533-8.533V93.861c0-4.71,3.823-8.533,8.533-8.533h68.267
	c4.71,0,8.533,3.823,8.533,8.533v42.667C153.6,141.239,149.777,145.061,145.067,145.061z M85.333,127.995h51.2v-25.6h-51.2V127.995z
	"/>
<rect x="119.467" y="136.528" width="17.067" height="51.2"/>
<g>
</g>
<g>
</g>
<g>
</g>
<g>
</g>
<g>
</g>
<g>
</g>
<g>
</g>
<g>
</g>
<g>
</g>
<g>
</g>
<g>
</g>
<g>
</g>
<g>
</g>
<g>
</g>
<g>
</g>
</svg>
